<?xml version="1.0" encoding="UTF-8"?>
<svg id="_圖層_1" data-name="圖層 1" xmlns="http://www.w3.org/2000/svg" viewBox="0 0 60 60">
  <defs>
    <style>
      .cls-1 {
        fill: #65c2be;
        stroke: #fff;
        stroke-miterlimit: 10;
        stroke-width: 5px;
      }

      .cls-2 {
        fill: #462e13;
      }

      .cls-2, .cls-3, .cls-4 {
        fill-rule: evenodd;
      }

      .cls-3 {
        fill: #c9c689;
      }

      .cls-4 {
        fill: #ced4a5;
      }
    </style>
  </defs>
  <rect class="cls-1" x="5" y="5" width="50" height="50" rx="25" ry="25"/>
  <g>
    <path class="cls-4" d="m22.36,35.63c.23,1.41.28,3.18,2.25,3.18h11.38c1.86,0,1.94-1.55,2.27-2.86l2.39-9.56h-19.83l1.54,9.24Z"/>
    <path class="cls-3" d="m30.7,30.43c-1.59,2.76-2.59,5.63-3.03,8.38h8.33c1.86,0,1.94-1.55,2.27-2.86l2.39-9.56h-7.08c-1.05,1.2-2.02,2.55-2.87,4.04Z"/>
    <path class="cls-2" d="m33.95,42.37c-1.11,0-2.01.9-2.01,2.01s.9,2.01,2.01,2.01,2.01-.9,2.01-2.01c0-1.11-.9-2.01-2.01-2.01Z"/>
    <path class="cls-2" d="m26.25,42.37c-1.11,0-2.01.9-2.01,2.01,0,1.11.9,2.01,2.01,2.01s2.01-.9,2.01-2.01c0-1.11-.9-2.01-2.01-2.01Z"/>
    <path class="cls-2" d="m41.74,24.56h-21l-.56-4.19c-.08-.61-.42-.87-1.02-.87h-4.14c-.56,0-1,.45-1,1.01s.45,1,1,1h3.28s2.35,14.29,2.35,14.29c.39,2.46.95,4.84,4.15,4.84h11.05c3.24,0,3.59-2.31,4.17-4.63l2.47-9.86c.19-.76.24-1.58-.75-1.58Zm-2.01,4.55h-13.68c-.55,0-1,.45-1,1h0c0,.55.45,1.01,1,1.01h13.18l-.57,2.29h-10.15c-.55,0-1,.45-1,1h0c0,.55.45,1.01,1,1.01h9.64l-.11.43c-.32,1.27-.39,2.78-2.2,2.78h-11.05c-1.91,0-1.96-1.72-2.19-3.09l-1.5-8.97h19.26l-.64,2.54Z"/>
  </g>
</svg>