<?xml version="1.0" encoding="UTF-8"?>
<svg id="_圖層_1" data-name="圖層 1" xmlns="http://www.w3.org/2000/svg" viewBox="0 0 60 60">
  <defs>
    <style>
      .cls-1 {
        fill: #65c2be;
      }

      .cls-2 {
        fill: #fff;
      }

      .cls-3 {
        fill: #ced4a5;
      }

      .cls-4 {
        fill: #462e13;
      }
    </style>
  </defs>
  <g>
    <rect class="cls-1" x="5" y="5" width="50" height="50" rx="25" ry="25"/>
    <path class="cls-2" d="m30,57.5c-15.16,0-27.5-12.34-27.5-27.5S14.84,2.5,30,2.5s27.5,12.34,27.5,27.5-12.34,27.5-27.5,27.5Zm0-50c-12.41,0-22.5,10.09-22.5,22.5s10.09,22.5,22.5,22.5,22.5-10.09,22.5-22.5S42.41,7.5,30,7.5Z"/>
  </g>
  <g>
    <path class="cls-3" d="m40.49,31.7l-1.75-.75c.1-.45.1-.91.1-1.27l1.66-.75c1.11-.37,1.66-1.66,1.19-2.76l-.37-.91c-.37-1.11-1.66-1.74-2.76-1.29l-1.66.64c-.28-.28-.64-.64-.92-.92l.73-1.66c.46-1.1-.09-2.39-1.1-2.84l-1.01-.45c-1.11-.47-2.3.09-2.86,1.1l-.64,1.66h-1.39l-.64-1.66c-.46-1.1-1.66-1.66-2.86-1.29l-.92.45c-1.11.38-1.66,1.66-1.29,2.77l.74,1.66c-.37.26-.74.63-1.01.91l-1.66-.73c-1.11-.47-2.4,0-2.85,1.1l-.37,1.01c-.56,1.01,0,2.3,1.1,2.76l1.66.73c-.1.47-.1.92,0,1.38l-1.74.64c-1.11.47-1.66,1.66-1.2,2.76l.37,1.01c.45,1.1,1.65,1.66,2.76,1.2l1.66-.65c.37.37.64.65,1.01,1l-.73,1.66c-.46,1.11,0,2.3,1.1,2.86l.92.37c1.11.45,2.39,0,2.85-1.1l.73-1.66c.37.09.83.09,1.29,0l.74,1.74c.36,1.1,1.65,1.66,2.76,1.19l.92-.37c1.11-.45,1.66-1.66,1.29-2.76l-.73-1.74c.37-.28.73-.54,1.01-.91l1.66.72c1.1.47,2.39,0,2.85-1.1l.37-.91c.55-1.11,0-2.39-1.01-2.84h0Zm-5.15.63h0c-1.29,2.84-4.6,4.13-7.36,2.84-2.85-1.19-4.14-4.48-2.85-7.34,1.19-2.76,4.51-4.04,7.27-2.84,2.85,1.29,4.13,4.5,2.94,7.34h0Zm-3.13-1.38h0c-.46,1.1-1.83,1.66-2.94,1.1-1.11-.45-1.57-1.74-1.11-2.84.55-1.1,1.84-1.55,2.95-1.1,1.1.45,1.56,1.74,1.1,2.84h0Z"/>
    <path class="cls-4" d="m33.32,42.77c-.44,0-.88-.09-1.29-.28-.76-.35-1.34-.99-1.6-1.76l-.42-.99s-.02,0-.04,0l-.44.99c-.65,1.55-2.51,2.29-4.15,1.62l-.91-.36c-1.66-.83-2.32-2.57-1.65-4.17l.46-1.04s-.04-.04-.06-.06l-1.05.41c-1.58.65-3.37-.11-4.04-1.75l-.39-1.05c-.65-1.54.11-3.33,1.75-4.02l1.06-.39s0-.06,0-.09l-.99-.44c-.81-.33-1.45-1.01-1.75-1.85-.26-.75-.22-1.54.14-2.23l.34-.95c.33-.8.92-1.39,1.69-1.7.79-.32,1.7-.32,2.49.02l1.05.47h0s-.43-.97-.43-.97c-.01-.03-.03-.06-.04-.1-.54-1.64.29-3.42,1.85-4l.86-.43s.1-.04.15-.06c1.69-.51,3.4.27,4.07,1.86l.41,1.04.39-1.02s.04-.08.06-.12c.84-1.52,2.61-2.18,4.12-1.54l1.03.46c1.53.69,2.27,2.58,1.61,4.14l-.45,1.01,1.01-.39c.75-.31,1.63-.29,2.41.07.79.36,1.39,1.03,1.66,1.84l.34.85c.33.78.31,1.69-.04,2.48-.34.74-.96,1.32-1.71,1.58l-1.04.47,1.06.45s.01,0,.02,0c.75.34,1.35.99,1.63,1.78.29.8.24,1.65-.14,2.41l-.34.84c-.32.77-.92,1.36-1.69,1.67-.79.32-1.69.31-2.48-.03l-1.02-.44-.03.03.44,1.04c.56,1.67-.26,3.42-1.83,4.07l-.93.37c-.37.16-.78.24-1.19.24Zm-2.68-5.1c.4,0,.76.23.92.61l.74,1.74c.11.33.3.53.55.64.28.13.61.13.89.01l.94-.37c.6-.25.92-.9.71-1.51l-.71-1.67c-.18-.42-.05-.91.32-1.18l.08-.06c.3-.23.56-.42.74-.65.28-.36.77-.49,1.19-.31l1.66.72c.3.13.64.13.94.01.27-.11.48-.32.59-.58l.36-.9c.2-.41.15-.72.08-.92-.1-.28-.31-.51-.57-.63l-1.74-.74c-.44-.19-.68-.66-.59-1.13.07-.35.07-.73.07-1.07,0-.39.23-.75.59-.91l1.66-.75s.06-.03.1-.04c.25-.08.46-.27.57-.53.13-.28.13-.61.01-.89l-.37-.92c-.11-.34-.33-.58-.62-.71-.16-.07-.48-.17-.83-.03l-1.68.65c-.37.14-.79.06-1.07-.23l-.92-.92c-.29-.29-.37-.73-.21-1.11l.73-1.66c.25-.6-.1-1.31-.59-1.53l-1.01-.45c-.62-.26-1.23.11-1.54.62l-.61,1.58c-.15.39-.52.64-.93.64h-1.38c-.41,0-.78-.25-.93-.64l-.64-1.66c-.25-.59-.89-.89-1.56-.71l-.83.41s-.08.04-.12.05c-.55.19-.86.86-.68,1.47l.72,1.6c.19.43.06.94-.33,1.22-.35.25-.75.66-.88.79-.29.3-.74.39-1.12.22l-1.66-.73c-.29-.12-.64-.13-.94,0-.19.08-.44.24-.58.57l-.35.97s-.04.1-.06.14c-.14.25-.1.51-.04.68.1.3.35.55.65.67l1.68.74c.43.19.67.65.58,1.11-.07.34-.07.65,0,.97.1.48-.17.97-.63,1.14l-1.74.64c-.57.25-.86.87-.63,1.43l.39,1.05c.24.58.86.86,1.44.62l1.67-.65c.37-.14.79-.06,1.07.23.36.36.64.64,1,.98.3.29.39.74.22,1.13l-.73,1.66c-.25.6,0,1.24.64,1.56l.84.33c.64.26,1.32.01,1.56-.56l.74-1.67c.2-.44.68-.68,1.15-.57.23.05.55.05.87-.01.06-.01.13-.02.19-.02Zm-.42-1c-.92,0-1.83-.2-2.67-.6-1.58-.66-2.83-1.93-3.47-3.56-.65-1.65-.6-3.46.14-5.1.67-1.56,1.95-2.77,3.57-3.42,1.64-.65,3.42-.62,5.01.07,3.35,1.51,4.86,5.31,3.46,8.65,0,0,0,.02-.01.03-.75,1.65-2.09,2.91-3.78,3.53-.73.27-1.49.4-2.24.4Zm0-11.14c-.57,0-1.15.11-1.7.33-1.13.45-2.01,1.29-2.48,2.37-.52,1.16-.56,2.41-.1,3.56.44,1.12,1.3,2,2.42,2.46,1.1.51,2.3.56,3.41.15,1.18-.43,2.11-1.31,2.64-2.47.97-2.33-.1-4.97-2.43-6.03-.56-.24-1.15-.36-1.76-.36Zm5.11,6.79h0,0Zm-5.14.94c-.48,0-.95-.11-1.38-.32-.69-.28-1.28-.87-1.59-1.63-.33-.79-.32-1.7.01-2.49.8-1.6,2.65-2.29,4.25-1.64.75.31,1.34.9,1.66,1.66.32.79.32,1.7-.01,2.49h0c-.33.79-1,1.43-1.83,1.73-.36.13-.73.2-1.1.2Zm.02-4.34c-.48,0-.93.27-1.16.72-.1.25-.1.59.02.89.08.19.24.44.57.58.43.21.78.13.96.07.31-.11.56-.34.68-.63.13-.31.13-.66,0-.96-.08-.19-.24-.44-.57-.58-.17-.07-.34-.1-.51-.1Zm1.99,2.02h0,0Z"/>
  </g>
</svg>